# xmcd
#
# Track frame offsets:
#	150
#	15037
#	24787
#	39737
#	54452
#	65517
#	77700
#	92917
#	105827
#	118310
#
# Disc length: 1854 seconds
#
# Revision: 0
# Processed by: cddbd v1.4PL0 Copyright (c) Steve Scherf et al.
# Submitted via: EasyCDDAExtractor 4.6.9.1
#
DISCID=6e073c0a
DTITLE=Elmo Williams and Hezekiah Early - Takes One to Know One
DYEAR=1997
DGENRE=Blues
TTITLE0=Mother's Dead
TTITLE1=Insane Instrumental
TTITLE2=Blue Jumped the Rabbit
TTITLE3=Booster
TTITLE4=Nothin' Man
TTITLE5=Hoopin' and Hollerin'
TTITLE6=Been Here and Gone
TTITLE7=Natchez Fire
TTITLE8=Do Your Thing
TTITLE9=Let It All Go
EXTD=
EXTT0=
EXTT1=
EXTT2=
EXTT3=
EXTT4=
EXTT5=
EXTT6=
EXTT7=
EXTT8=
EXTT9=
PLAYORDER=
